<svg xmlns="http://www.w3.org/2000/svg" version="1.1" xmlns:xlink="http://www.w3.org/1999/xlink" width="1000" height="1000"><g clip-path="url(#SvgjsClipPath1034)"><rect width="1000" height="1000" fill="#f2ebe0"></rect><g transform="matrix(1.1814345991561181,0,0,1.1814345991561181,150,307.36708860759495)"><svg xmlns="http://www.w3.org/2000/svg" version="1.1" xmlns:xlink="http://www.w3.org/1999/xlink" width="592.5" height="326.1"><svg xmlns="http://www.w3.org/2000/svg" xml:space="preserve" id="Layer_1" width="592.5" height="326.1" x="0" y="0" viewBox="0 0 592.5 326.1"><path d="M130.7 12v60.5l140 86.5zM65 56v43.5l157 50zM214 0v73.5l72.4 74.7z" style="fill:#2c2c2c"></path><path d="M296.3 191.9 0 100l88 188.5h416.5l88-188.5zM296 305H95.6l9.9 21.1H487l9.9-21.1H296.5z" style="fill:#2c2c2c"></path><path d="M461.8 72.5V12l-140 147zm65.7 27V56l-157 93.5zM378.5 0l-72.4 148.2 72.4-74.7z" style="fill:#2c2c2c"></path></svg></svg></g></g><defs><clipPath id="SvgjsClipPath1034"><rect width="1000" height="1000" x="0" y="0" rx="350" ry="350"></rect></clipPath></defs></svg>